<?xml version="1.0" encoding="utf-8"?>
<!-- Generator: Adobe Illustrator 24.3.0, SVG Export Plug-In . SVG Version: 6.00 Build 0)  -->
<svg version="1.1" id="Layer_1" xmlns="http://www.w3.org/2000/svg" xmlns:xlink="http://www.w3.org/1999/xlink" x="0px" y="0px"
	 viewBox="0 0 661.3 231.6" style="enable-background:new 0 0 661.3 231.6;" xml:space="preserve">
<style type="text/css">
	.st0{fill:none;}
	.st1{fill:#FF9734;stroke:#01647A;stroke-width:2.89;stroke-linecap:round;stroke-linejoin:round;}
	.st2{fill:#01647A;}
	.st3{fill:#FFFFFF;stroke:#FF9734;stroke-width:4;stroke-linecap:round;stroke-linejoin:round;}
	.st4{fill:#007FA1;}
	.st5{fill:#FF9734;}
	.st6{fill:none;stroke:#FF9734;stroke-width:4;stroke-linecap:round;stroke-linejoin:round;}
	.st7{fill:none;stroke:#FF9734;stroke-width:0.5;stroke-linecap:round;stroke-linejoin:round;}
	.st8{fill:none;stroke:#FFFFFF;stroke-width:2.89;stroke-linecap:round;stroke-linejoin:round;}
	.st9{fill:#FF9734;stroke:#FFFFFF;stroke-width:2.89;stroke-linecap:round;stroke-linejoin:round;}
	.st10{fill:#FFFFFF;stroke:#FF9734;stroke-width:2.89;stroke-linecap:round;stroke-linejoin:round;}
	.st11{opacity:0.28;}
	.st12{fill:#FFFFFF;}
	.st13{opacity:0.19;enable-background:new    ;}
	.st14{fill:#F19B4B;}
	.st15{fill:#296378;}
	.st16{opacity:0.19;fill:#1D1D1B;}
	.st17{opacity:0.19;}
</style>
<g>
	<g id="Layer_1_1_">
		<rect x="-26" y="-35.3" class="st0" width="300" height="300"/>
	</g>
	<g id="Layer_2_1_">
		<circle class="st1" cx="204.7" cy="221.7" r="7.6"/>
		
			<ellipse transform="matrix(0.1602 -0.9871 0.9871 0.1602 55.8161 344.6639)" class="st1" cx="230.5" cy="139.5" rx="7.6" ry="7.6"/>
		<circle class="st2" cx="213.8" cy="198.5" r="4"/>
		<circle class="st2" cx="157.2" cy="12.5" r="12.5"/>
		<polygon class="st3" points="180.2,45.7 163.5,39.3 152.2,53.2 153.1,35.4 136.4,29 153.7,24.3 154.6,6.5 164.4,21.5 181.6,16.8 
			170.4,30.7 		"/>
		<circle class="st4" cx="166.6" cy="18.7" r="6.2"/>
		<circle class="st4" cx="188.5" cy="53.1" r="3.1"/>
		<circle class="st4" cx="196.3" cy="60.9" r="1.8"/>
		<circle class="st5" cx="135.4" cy="15.6" r="3.1"/>
		<path class="st6" d="M22.1,131.3c6.9-3.4,14.1-6.2,21.6-8.3"/>
		<path class="st6" d="M197.5,123.6c15.2,4.6,26.9,10.6,33.6,17.3"/>
		<path class="st5" d="M105.5,25.9c-0.2-0.2-0.4-0.3-0.7-0.2l-2.9,0.9l-1.8-2.5c-0.1-0.2-0.4-0.3-0.7-0.2c-0.2,0.1-0.4,0.3-0.4,0.6
			v3l-2.9,0.9c-0.2,0.1-0.4,0.3-0.4,0.6c0,0.3,0.2,0.5,0.4,0.6l2.9,1v3c0,0.3,0.3,0.6,0.6,0.6c0.2,0,0.4-0.1,0.5-0.2l1.8-2.4l2.9,1
			c0.3,0.1,0.7,0,0.8-0.4c0.1-0.2,0-0.4-0.1-0.6l-1.8-2.5l1.8-2.4C105.7,26.4,105.6,26.1,105.5,25.9z"/>
		<path class="st7" d="M122.3,47.5c-0.2-0.2-0.4-0.3-0.7-0.2l-2.9,0.9l-1.8-2.5c-0.2-0.2-0.4-0.3-0.7-0.2c-0.2,0.1-0.4,0.3-0.4,0.6
			v3l-2.9,0.9c-0.2,0.1-0.4,0.3-0.4,0.6c0,0.3,0.2,0.5,0.4,0.6l2.9,1v3c0,0.3,0.2,0.5,0.4,0.6c0.2,0.1,0.5,0,0.7-0.2l1.8-2.4l2.9,1
			c0.3,0.1,0.7-0.1,0.8-0.4c0.1-0.2,0-0.4-0.1-0.5l-1.8-2.5l1.8-2.4C122.5,48,122.5,47.7,122.3,47.5z"/>
		<circle class="st4" cx="113.5" cy="36.1" r="2"/>
		<circle class="st4" cx="118.8" cy="41" r="1.2"/>
		<circle class="st2" cx="21.2" cy="131.5" r="6.5"/>
		<circle class="st2" cx="119" cy="147.6" r="79.9"/>
		<circle class="st6" cx="119" cy="147.6" r="79.9"/>
		<path class="st2" d="M119,67.7c-44.2,0-80,35.8-79.9,80c0,0.3,0,0.5,0,0.8c5.5-1.1,10.6-4,14.3-8.2c6.6-6.6,15.6-15.6,25.2-17.7
			c8.6-2,16.6-2.5,24.7,0c12.6,4.5,25.7,7.1,38.8,4c5.6-1.5,13.6-3,16.1-8.1c5.7-10.2,15.6-15.2,26.3-16.6
			C169.6,80.5,145.1,67.7,119,67.7z"/>
		<path class="st6" d="M119,67.7c-44.2,0-80,35.8-79.9,80c0,0.3,0,0.5,0,0.8c5.5-1.1,10.6-4,14.3-8.2c6.6-6.6,15.6-15.6,25.2-17.7
			c8.6-2,16.6-2.5,24.7,0c12.6,4.5,25.7,7.1,38.8,4c5.6-1.5,13.6-3,16.1-8.1c5.7-10.2,15.6-15.2,26.3-16.6
			C169.6,80.5,145.1,67.7,119,67.7z"/>
		<path class="st5" d="M56.8,120.5c15-34.3,55-50,89.3-35.1c6.3,2.8,12.2,6.4,17.4,11c-6.4,3.8-11.7,9.2-15.4,15.7
			c-2.2,0.9-4.5,1.7-6.9,2.2l-1.9,0.5c-2.9,0.7-5.9,1-8.9,1l0,0c-6.7,0-14.2-1.5-22.9-4.6l-0.2-0.1l-0.2-0.1
			c-4.9-1.5-10-2.3-15.1-2.3c-5.3,0.1-10.7,0.7-15.9,2C68.8,112.2,62.4,116.1,56.8,120.5z"/>
		<path class="st8" d="M56.8,120.5c15-34.3,55-50,89.3-35.1c6.3,2.8,12.2,6.4,17.4,11c-6.4,3.8-11.7,9.2-15.4,15.7
			c-2.2,0.9-4.5,1.7-6.9,2.2l-1.9,0.5c-2.9,0.7-5.9,1-8.9,1l0,0c-6.7,0-14.2-1.5-22.9-4.6l-0.2-0.1l-0.2-0.1
			c-4.9-1.5-10-2.3-15.1-2.3c-5.3,0.1-10.7,0.7-15.9,2C68.8,112.2,62.4,116.1,56.8,120.5z"/>
		<circle class="st5" cx="163.1" cy="172.1" r="6.6"/>
		<circle class="st9" cx="184.2" cy="151.4" r="5.8"/>
		<path class="st6" d="M114.8,194.4C52.1,193.9,2,176.3,1.9,154.4c0-5,2.6-9.9,7.4-14.4"/>
		<path class="st6" d="M237.5,154.1c0,21-46.1,38.3-105.4,40.5"/>
		<circle class="st10" cx="133.6" cy="193.6" r="10.1"/>
		<g class="st11">
			<path class="st12" d="M222.3,144.5c2.2,4.5,7.6,6.4,12.1,4.3c4.5-2.2,6.4-7.6,4.3-12.1c-1.5-3.2-4.7-5.2-8.2-5.2
				c-0.8,0-1.6,0.1-2.4,0.3c-0.5,2.3-1.1,4.5-2.1,6.6C225,140.6,223.8,142.6,222.3,144.5z"/>
			<path class="st12" d="M237.5,153.1c-1.1,0-2,0.9-2,2l0,0c0,2.4-0.7,4.7-1.9,6.7c-2.2,3.9-6.3,7.9-12.2,11.5
				c-7.3,4.5-17.2,8.5-29,11.7c3.4-6.9,5.9-14.3,7.2-21.9c-2.5,2.1-4.6,4.5-6.4,7.2c-1.2,6.3-3.2,12.4-5.8,18.2
				c-2.8,6.1-6.6,11.6-11.3,16.4c-1.2,2-2.5,4-3.9,5.9c7-6,13-13.1,17.6-21.1c6.1-1.5,12.1-3.4,17.9-5.6c9.6-3.7,17.4-7.9,22.9-12.8
				c2.6-2.2,4.8-4.8,6.5-7.7c1.5-2.6,2.3-5.6,2.4-8.6C239.5,154,238.6,153.1,237.5,153.1z"/>
		</g>
		<path class="st13" d="M133.1,151.4c-6-12-22-23-14-37c10.7-20.7,33.8-22.6,55.2-27.3l-0.5-0.4c-0.8-0.7-1.6-1.4-2.4-2.1l-0.7-0.6
			c-0.7-0.6-1.4-1.2-2.2-1.7l-0.6-0.5c-0.9-0.6-1.7-1.3-2.6-1.9l-0.8-0.6c-0.9-0.6-1.8-1.2-2.7-1.8l-0.6-0.3c-0.8-0.5-1.7-1-2.5-1.4
			l-0.8-0.4c-1-0.5-1.9-1-2.9-1.5l-0.8-0.4c-1-0.5-1.9-0.9-2.9-1.3l-0.4-0.2c-1-0.4-2.1-0.8-3.1-1.2l-0.8-0.3
			c-1.1-0.4-2.1-0.7-3.2-1.1c-0.2-0.1-0.5-0.1-0.7-0.2c-1-0.3-2-0.6-3.1-0.9l-0.5-0.1c-1.1-0.3-2.3-0.6-3.4-0.8l-0.8-0.2
			c-1.2-0.2-2.3-0.4-3.5-0.6c-0.1,0-0.3,0-0.4-0.1c-1.1-0.2-2.2-0.3-3.4-0.4l-0.7-0.1c-1.2-0.1-2.4-0.2-3.6-0.3h-0.8
			c-1.2-0.1-2.5-0.1-3.8-0.1c-35.3,0-66.6,22.6-77.7,56c-5.2,1.5-10.2,3.4-15.2,5.6c-2.3-2.7-6.4-3-9.1-0.7s-3,6.4-0.7,9.1
			c2.3,2.7,6.4,3,9.1,0.7c1.4-1.2,2.2-3,2.2-4.9c0-0.2,0-0.4,0-0.5c4-1.8,8.1-3.3,12.3-4.6c-1.9,6.9-2.8,14.1-2.8,21.3
			c0,0.3,0,0.6,0,0.8c0,0,0,0.1,0,0.1c0.1,12.2,3,24.2,8.3,35.1c-3.4-1-6.7-2-9.8-3.1c-10-3.5-18.1-7.7-23.5-12.2
			c-2.4-1.9-4.5-4.3-6.1-6.9c-1.3-2.1-2-4.5-2-7l0,0v-0.1c0-2.2,0.6-4.4,1.7-6.4c1.3-2.4,3-4.6,5.1-6.4c0.8-0.8,0.8-2,0-2.8
			c-0.7-0.7-1.9-0.8-2.7-0.1c-2.4,2.1-4.4,4.7-5.9,7.5c-1.4,2.5-2.2,5.4-2.2,8.3v0.1l0,0c0,3.2,0.9,6.3,2.6,9
			c2.9,4.9,8,9.3,14.7,13.3c8,4.6,18.5,8.6,30.7,11.8c5.9,10.1,13.8,18.9,23.3,25.7c8.7-8.2,19.1-14.9,29.8-20.8
			C116.1,184.4,143.1,168.4,133.1,151.4z"/>
	</g>
</g>
<g>
	<path class="st14" d="M297.5,162.6c-4.4,13.9-5.3,29.1-4.8,44.8c-8.3,13.1-23.6,16.1-25.5-2.2c-4.8-35.6,26.4-71.9,22.5-107.4
		c-2.7-12.8,27.5,2.1,24.8,12.4c-13.1,38.6-10.8,43.1,18.2,9.8c13.3-15.8,28.2-50.4-6.6-40.5c-11.3,1.1-83.8,17.5-52.2,27.3
		c-1.7,2.2-10.6,7.1-14.2,5c-4.2-8.7-16.2-10.9-16.8-21c6.7-19.7,36.6-24.2,55-30.3c30.9-12.3,65.8-2.2,72.4,33.1
		C360,120.7,332.3,170.1,297.5,162.6z"/>
	<path class="st14" d="M420.5,158.2c16.9,8.2-2.9,25.4-8.6,36.3c-19.4,34-43,23-31-13.7c3.8-20.2,22.7-49.2,3-65.8
		c-4.5,9.8-18.2,73.7-32.2,51.4c23.1-27.8,6.6-101,32-75.4c2.1,18.8,31.9,14.5,34.2,35.6c-2.1,17.7-14,39.7-15.2,57
		C410.1,179.5,416.5,165.3,420.5,158.2z"/>
	<path class="st14" d="M457.7,158.2c20.9,12.2-19.2,44.3-28.9,55.4c-41.3,26.3,3.9-158.2,23.9-88.4
		C445.9,144.1,411.8,226,457.7,158.2z M446.8,76.3c0.8,11.2-20.3,18.5-21.1,4.5C425,69.6,446,62,446.8,76.3z M476.1,76.1
		c0.7,11.2-20.3,18.8-21.1,4.5C454.7,69.8,475.2,62.1,476.1,76.1z"/>
	<path class="st15" d="M536.7,114.4c-16.4,78.5-102.3,160.3-73.1,17.3c2.9-8.4,5.4-20.4,11.7-23.3c13.3,2.7,19.8,14.6,12.1,27
		c-5.5,16.9-16.7,73.2,9.4,30.6c9.5-17.8,20-41.1,22.1-60.8C518.6,92.6,536.4,107.9,536.7,114.4z"/>
	<path class="st15" d="M600.5,158.2c29.4,23.4-72.1,104.9-72.8,22.6c4-25,7.2-71.4,36.6-79.2c56,0.8,19.6,86.9-10.6,61
		C550,219.4,587.4,189.6,600.5,158.2z M569.5,114.2c-6.3,4.5-23.9,47.9-4.8,37.3C570.5,142.7,583.5,120.8,569.5,114.2z"/>
	<path class="st15" d="M623.9,66.8c27.3,0.2,26.5,21.5,17.2,40.8c6.9-1,11,2,5.1,8.1c-20.4,5.2-50.3,114.5-6.1,42.1
		c26.6,6.7-61.1,113.2-45.4,18.8c0.3-17.5,22.5-50,15-60.5c-3.7,1.4-7.9,7-8.2-0.5c-0.1-7.5,8.2-13.2,15.4-12
		c1.2-9.4,10.3-22.9,6.6-32C622.1,69.9,621.7,67.6,623.9,66.8z"/>
	<path class="st16" d="M259.7,111.8c3.6,2.1,12.5-2.8,14.2-5c-8.8-2.7-9.5-6-5.7-9.3c-8.1,0.2-14.3,1.4-18.8,3.8
		C253.1,104.4,257.5,107.2,259.7,111.8z"/>
	<path class="st16" d="M267.2,205.2c1.9,18.3,17.2,15.3,25.5,2.2c-0.5-15.7,0.4-30.9,4.8-44.8c28.6,6.2,52.5-26.2,65.7-52.9
		c-7.5-1.2-14.6-2.4-21.3-3.5c-2.7,5.1-6,10-9.2,13.8c-29,33.3-31.3,28.8-18.2-9.8c0.7-2.9-1.1-6.1-4-8.9c-7.6-1.1-14.5-2-20.8-2.6
		C293.1,133.8,262.4,169.9,267.2,205.2z"/>
	<path class="st16" d="M383.7,115.4c-2.6-1.2-5.2-2.4-7.8-3.7c-3.1-0.5-6.2-1-9.2-1.5c-1.9,18.4-3.7,42.6-15,56.2
		C365.6,188.4,379,126.6,383.7,115.4z"/>
	<path class="st16" d="M380.9,180.8c-12,36.8,11.6,47.8,31,13.7c0-0.1,0.1-0.1,0.1-0.2c0-7.3,0.8-15.9,2.3-24.7
		c-3.3,5.8-7.3,11.6-11.6,13.9c1.1-16.2,11.6-36.5,14.7-53.5c-10.1-4.1-20.9-8.7-32.3-14C402.8,132.8,384.6,161,380.9,180.8z"/>
	<path class="st16" d="M412,194.3c0.1,16.7,4.8,27,16.8,19.3c5.4-6.2,20.4-19,28.8-31.2c-0.1-6.5,0.3-14.2,1.4-23.3
		c-0.4-0.3-0.9-0.6-1.3-0.9c-37.4,55.2-21.8,11.2-11-17.3c-7.2-2.4-14.7-5.1-22.6-8.2c-4.2,10.9-7.7,24.1-9.9,36.9
		C412.8,178.4,412,187,412,194.3z"/>
	<path class="st16" d="M457.6,182.4c1.2,53,40.9,21.6,64.5-26.5c-6.1-0.2-12.6-0.7-19.4-1.6c-2,4.1-4,8-5.9,11.7
		c-20.3,33.1-18,6.5-13.4-15c-7-1.5-14.5-3.3-22.3-5.6c-0.8,4.9-1.5,9.4-2,13.7C457.9,168.2,457.5,175.9,457.6,182.4z"/>
	<path class="st17" d="M592.8,195c0.1-5,0.7-11.1,1.9-18.4c0-3,0.8-6.5,1.9-10.3c-15.4,27.9-46.3,48.1-42.9-3.7
		c14.1,12.1,29.5-0.2,36.3-16.9c-9.1,2.6-18.1,5-27.6,6.8c-1.2,0.4-2.2,0.6-3,0.6c-8.8,1.6-18,2.6-27.9,2.8
		c-1.6,9.1-2.7,17.8-3.8,24.9C528.2,234,570.7,218.7,592.8,195z"/>
	<path class="st17" d="M594.7,176.6c-1.2,7.3-1.8,13.4-1.9,18.4c-1,60.1,71.9-31,47.3-37.2c-33.2,54.5-24.6,6.1-9.5-23.4
		c-8.5,2-16.6,4.3-24.4,6.6c-3.3,8.4-7.3,17.4-9.6,25.3C595.5,170.1,594.8,173.5,594.7,176.6z"/>
</g>
</svg>
